# xmcd
#
# Track frame offsets: 
#        150
#        18772
#        30193
#        45534
#        66435
#        81376
#        99877
#        118382
#        142047
#        157455
#        178791
#
# Disc length: 2622 seconds
#
# Revision: 1
# Processed by: cddbd v1.5.2PL0 Copyright (c) Steve Scherf et al.
# Submitted via: ExactAudioCopyFreeDBPlugin 1.0
#
DISCID=950a3c0b
DTITLE=Jetsurfers - Western Reality
DYEAR=2007
DGENRE=Country
TTITLE0=The Rivers Roll (With Tone Holen)
TTITLE1=Honkytonk Hellraisin´ Hillbilly Blue
TTITLE2=That Ol´ Fishing Boat
TTITLE3=When The Town Blew Up (I Was Out Of Town)
TTITLE4=Make Love Like A Pornstar (And Cook Like Mama)
TTITLE5=Swagmans Lament
TTITLE6=Missing Colors
TTITLE7=Halfway There
TTITLE8=Acceptable
TTITLE9=Country Soul #5 (With Mason Ruffner And Stina Stensrud)
TTITLE10=How ´Bout You
EXTD=
EXTT0=
EXTT1=
EXTT2=
EXTT3=
EXTT4=
EXTT5=
EXTT6=
EXTT7=
EXTT8=
EXTT9=
EXTT10=
PLAYORDER=
